<svg width="808" height="741" viewBox="0 0 808 741" fill="none" xmlns="http://www.w3.org/2000/svg">
<path fill-rule="evenodd" clip-rule="evenodd" d="M525.904 92.1832C596.019 112.065 632.628 180.009 674.152 235.201C710.343 283.305 747.915 333.241 749.847 389.839C751.701 444.167 709.159 485.932 684.356 534.237C656.002 589.456 654.721 664.931 594.405 692.562C533.695 720.373 457.869 689.187 390.789 668.719C328.451 649.698 276.191 616.545 224.016 579.543C157.78 532.569 61.9291 497.953 46.8536 424.803C31.8103 351.81 101.95 291.946 153.464 237.211C197.88 190.018 256.244 159.505 319.85 134.737C385.605 109.132 455.081 72.101 525.904 92.1832Z" fill="url(#paint0_linear)" fill-opacity="0.1"/>
<defs>
<linearGradient id="paint0_linear" x1="300.912" y1="101.792" x2="582.863" y2="665.042" gradientUnits="userSpaceOnUse">
<stop stop-color="#9B51E0"/>
<stop offset="0.510417" stop-color="#7D97EE"/>
<stop offset="1" stop-color="#61DAFB"/>
</linearGradient>
</defs>
</svg>
