<svg width="340" height="70" viewBox="0 0 340 70" fill="none" xmlns="http://www.w3.org/2000/svg">
<g filter="url(#filter0_d)">
<path d="M4.90857 39.3295C4.90857 47.521 10.7623 53.2656 18.1566 53.2656C25.294 53.2656 29.7614 49.1699 30.9937 43.1593L24.6265 41.5103C23.959 44.9678 22.1618 47.3082 18.2592 47.3082C14.1 47.3082 11.3785 44.1167 11.3785 39.3295C11.3785 34.5422 14.3567 31.3507 18.2592 31.3507C22.1618 31.3507 24.1644 34.0103 24.6265 37.2018L30.9937 35.4997C29.6587 29.489 25.2427 25.3933 18.1566 25.3933C10.7623 25.3933 4.90857 31.138 4.90857 39.3295ZM84.5983 15.2869H78.1284V29.8614H77.5122C76.1771 27.6273 73.9177 25.3933 69.399 25.3933C63.0317 25.3933 57.6915 31.2444 57.6915 39.3295C57.6915 47.4146 63.0317 53.2656 69.399 53.2656C73.9177 53.2656 76.1771 51.0316 77.5122 48.7975H78.231V52.521H84.5983V15.2869ZM71.1449 31.3507C75.1501 31.3507 78.1284 34.3295 78.1284 39.3295C78.1284 44.3295 75.1501 47.3082 71.1449 47.3082C67.2423 47.3082 64.1614 44.4358 64.1614 39.3295C64.1614 34.2231 67.2423 31.3507 71.1449 31.3507ZM86.4697 18.4784C86.4697 21.1912 88.4723 23.0529 91.0397 23.0529C93.6072 23.0529 95.6098 21.1912 95.6098 18.4784C95.6098 15.7656 93.6072 13.9039 91.0397 13.9039C88.4723 13.9039 86.4697 15.7656 86.4697 18.4784ZM94.2747 26.138H87.8047V52.521H94.2747V26.138ZM97.4726 26.138V52.521H103.943V38.9039C103.943 34.2231 106.151 31.5635 110.31 31.5635C114.007 31.5635 116.061 33.7444 116.061 37.4146V52.521H122.531V36.7763C122.531 29.9146 118.269 25.7124 112.62 25.7124C107.948 25.7124 105.586 27.9465 104.559 30.3933H103.84V26.138H97.4726ZM144.393 26.138V29.8614H143.674C142.339 27.6273 140.079 25.3933 135.561 25.3933C129.193 25.3933 123.853 31.0316 123.853 38.9039C123.853 46.7763 129.193 52.4146 135.561 52.4146C140.079 52.4146 142.339 50.1805 143.674 47.9465H144.29V51.3507C144.29 56.0316 141.26 58.1593 137.255 58.1593C133.404 58.1593 130.939 55.6593 129.604 52.9465L124.161 56.4571C126.729 60.6061 130.682 63.9039 137.666 63.9039C145.676 63.9039 150.76 58.8507 150.76 51.6167V26.138H144.393ZM137.306 46.4571C133.404 46.4571 130.323 43.7976 130.323 38.9039C130.323 34.0103 133.404 31.3507 137.306 31.3507C141.312 31.3507 144.29 34.1167 144.29 38.9039C144.29 43.6912 141.312 46.4571 137.306 46.4571ZM246.194 26.138V52.521H252.664V38.9039C252.664 34.2231 254.872 31.5635 259.031 31.5635C262.728 31.5635 264.782 33.7444 264.782 37.4146V52.521H271.252V36.7763C271.252 29.9146 266.99 25.7124 261.341 25.7124C256.669 25.7124 254.307 27.9465 253.28 30.3933H252.561V26.138H246.194ZM272.779 18.4784C272.779 21.1912 274.782 23.0529 277.349 23.0529C279.917 23.0529 281.92 21.1912 281.92 18.4784C281.92 15.7656 279.917 13.9039 277.349 13.9039C274.782 13.9039 272.779 15.7656 272.779 18.4784ZM280.584 26.138H274.115V52.521H280.584V26.138ZM282.242 39.3295C282.242 47.521 288.096 53.2656 295.49 53.2656C302.627 53.2656 307.095 49.1699 308.327 43.1593L301.96 41.5103C301.292 44.9678 299.495 47.3082 295.593 47.3082C291.433 47.3082 288.712 44.1167 288.712 39.3295C288.712 34.5422 291.69 31.3507 295.593 31.3507C299.495 31.3507 301.498 34.0103 301.96 37.2018L308.327 35.4997C306.992 29.489 302.576 25.3933 295.49 25.3933C288.096 25.3933 282.242 31.138 282.242 39.3295ZM308.207 39.3295C308.207 47.6273 314.061 53.2656 321.558 53.2656C329.055 53.2656 334.909 47.6273 334.909 39.3295C334.909 31.0316 329.055 25.3933 321.558 25.3933C314.061 25.3933 308.207 31.0316 308.207 39.3295ZM314.677 39.3295C314.677 34.5422 317.45 31.3507 321.558 31.3507C325.666 31.3507 328.439 34.5422 328.439 39.3295C328.439 44.1167 325.666 47.3082 321.558 47.3082C317.45 47.3082 314.677 44.1167 314.677 39.3295Z" fill="url(#paint0_linear)"/>
<path d="M151.604 26.138L156.636 52.521H165.879L169.884 31.8827H170.501L174.506 52.521H183.749L188.781 26.138H182.311L179.281 46.7763H178.665L174.66 26.138H165.725L161.72 46.7763H161.104L158.074 26.138H151.604ZM188.274 18.4784C188.274 21.1912 190.277 23.0529 192.844 23.0529C195.412 23.0529 197.414 21.1912 197.414 18.4784C197.414 15.7657 195.412 13.904 192.844 13.904C190.277 13.904 188.274 15.7657 188.274 18.4784ZM196.079 26.138H189.609V52.521H196.079V26.138ZM196.608 26.138V31.8827H203.078V47.4146C203.078 50.3933 205.234 52.521 208.11 52.521H215.093V46.7763H210.986C210.061 46.7763 209.548 46.2444 209.548 45.1806V31.8827H216.531V26.138H209.548V17.9465H203.078V26.138H196.608ZM218.273 15.2869V52.521H224.743V38.904C224.743 34.2231 226.951 31.5635 231.11 31.5635C234.807 31.5635 236.861 33.7444 236.861 37.4146V52.521H243.331V36.7763C243.331 29.9146 239.069 25.7125 233.421 25.7125C228.748 25.7125 226.386 27.9465 225.359 30.3933H224.743V15.2869H218.273Z" fill="url(#paint1_linear)"/>
<path d="M151.604 26.138L156.636 52.521H165.879L169.884 31.8827H170.501L174.506 52.521H183.749L188.781 26.138H182.311L179.281 46.7763H178.665L174.66 26.138H165.725L161.72 46.7763H161.104L158.074 26.138H151.604ZM188.274 18.4784C188.274 21.1912 190.277 23.0529 192.844 23.0529C195.412 23.0529 197.414 21.1912 197.414 18.4784C197.414 15.7657 195.412 13.904 192.844 13.904C190.277 13.904 188.274 15.7657 188.274 18.4784ZM196.079 26.138H189.609V52.521H196.079V26.138ZM196.608 26.138V31.8827H203.078V47.4146C203.078 50.3933 205.234 52.521 208.11 52.521H215.093V46.7763H210.986C210.061 46.7763 209.548 46.2444 209.548 45.1806V31.8827H216.531V26.138H209.548V17.9465H203.078V26.138H196.608ZM218.273 15.2869V52.521H224.743V38.904C224.743 34.2231 226.951 31.5635 231.11 31.5635C234.807 31.5635 236.861 33.7444 236.861 37.4146V52.521H243.331V36.7763C243.331 29.9146 239.069 25.7125 233.421 25.7125C228.748 25.7125 226.386 27.9465 225.359 30.3933H224.743V15.2869H218.273Z" fill="url(#paint2_linear)"/>
</g>
<defs>
<filter id="filter0_d" x="3.1532" y="12.1486" width="333.511" height="53.5107" filterUnits="userSpaceOnUse" color-interpolation-filters="sRGB">
<feFlood flood-opacity="0" result="BackgroundImageFix"/>
<feColorMatrix in="SourceAlpha" type="matrix" values="0 0 0 0 0 0 0 0 0 0 0 0 0 0 0 0 0 0 127 0"/>
<feOffset/>
<feGaussianBlur stdDeviation="0.877686"/>
<feColorMatrix type="matrix" values="0 0 0 0 0.607843 0 0 0 0 0.317647 0 0 0 0 0.878431 0 0 0 0.26 0"/>
<feBlend mode="normal" in2="BackgroundImageFix" result="effect1_dropShadow"/>
<feBlend mode="normal" in="SourceGraphic" in2="effect1_dropShadow" result="shape"/>
</filter>
<linearGradient id="paint0_linear" x1="48.7737" y1="4.6064" x2="59.1172" y2="87.5341" gradientUnits="userSpaceOnUse">
<stop stop-color="#F4D7FF"/>
<stop offset="1" stop-color="#BB6BD9"/>
</linearGradient>
<linearGradient id="paint1_linear" x1="48.7738" y1="4.60643" x2="59.1173" y2="87.5341" gradientUnits="userSpaceOnUse">
<stop stop-color="#F4D7FF"/>
<stop offset="1" stop-color="#BB6BD9"/>
</linearGradient>
<linearGradient id="paint2_linear" x1="170.1" y1="0.0682627" x2="170.1" y2="63.6025" gradientUnits="userSpaceOnUse">
<stop stop-color="#9B51E0"/>
<stop offset="1" stop-color="#9B51E0"/>
</linearGradient>
</defs>
</svg>
