<svg width="335" height="54" viewBox="0 0 335 54" fill="none" xmlns="http://www.w3.org/2000/svg">
<g filter="url(#filter0_d)">
<path d="M1.90857 27.4549C1.90857 35.6868 7.77143 41.4598 15.1771 41.4598C22.3257 41.4598 26.8 37.3439 28.0343 31.3036L21.6571 29.6465C20.9886 33.121 19.1886 35.473 15.28 35.473C11.1143 35.473 8.38857 32.2658 8.38857 27.4549C8.38857 22.644 11.3714 19.4368 15.28 19.4368C19.1886 19.4368 21.1943 22.1095 21.6571 25.3167L28.0343 23.6062C26.6971 17.5659 22.2743 13.45 15.1771 13.45C7.77143 13.45 1.90857 19.223 1.90857 27.4549ZM27.9141 27.4549C27.9141 35.7937 33.777 41.4598 41.2856 41.4598C48.7941 41.4598 54.657 35.7937 54.657 27.4549C54.657 19.1161 48.7941 13.45 41.2856 13.45C33.777 13.45 27.9141 19.1161 27.9141 27.4549ZM34.3941 27.4549C34.3941 22.644 37.1713 19.4368 41.2856 19.4368C45.3999 19.4368 48.177 22.644 48.177 27.4549C48.177 32.2658 45.3999 35.473 41.2856 35.473C37.1713 35.473 34.3941 32.2658 34.3941 27.4549ZM81.7221 3.29373H75.2421V17.9401H74.625C73.2879 15.695 71.025 13.45 66.4992 13.45C60.1221 13.45 54.7735 19.3299 54.7735 27.4549C54.7735 35.5799 60.1221 41.4598 66.4992 41.4598C71.025 41.4598 73.2879 39.2148 74.625 36.9697H75.345V40.7115H81.7221V3.29373ZM68.2478 19.4368C72.2593 19.4368 75.2421 22.4302 75.2421 27.4549C75.2421 32.4796 72.2593 35.473 68.2478 35.473C64.3392 35.473 61.2535 32.5865 61.2535 27.4549C61.2535 22.3233 64.3392 19.4368 68.2478 19.4368ZM83.5964 6.50097C83.5964 9.22712 85.6021 11.098 88.1736 11.098C90.745 11.098 92.7507 9.22712 92.7507 6.50097C92.7507 3.77482 90.745 1.90393 88.1736 1.90393C85.6021 1.90393 83.5964 3.77482 83.5964 6.50097ZM91.4136 14.1983H84.9336V40.7115H91.4136V14.1983ZM94.6164 14.1983V40.7115H101.096V27.0273C101.096 22.3233 103.308 19.6506 107.474 19.6506C111.176 19.6506 113.234 21.8422 113.234 25.5306V40.7115H119.714V24.8891C119.714 17.9936 115.445 13.7707 109.788 13.7707C105.108 13.7707 102.742 16.0158 101.714 18.4746H100.994V14.1983H94.6164ZM141.609 14.1983V17.9401H140.889C139.552 15.695 137.289 13.45 132.764 13.45C126.386 13.45 121.038 19.1161 121.038 27.0273C121.038 34.9385 126.386 40.6046 132.764 40.6046C137.289 40.6046 139.552 38.3595 140.889 36.1144H141.506V39.5355C141.506 44.2394 138.472 46.3776 134.461 46.3776C130.604 46.3776 128.135 43.8653 126.798 41.1391L121.346 44.6671C123.918 48.8365 127.878 52.1506 134.872 52.1506C142.895 52.1506 147.986 47.0725 147.986 39.8028V14.1983H141.609ZM134.512 34.6177C130.604 34.6177 127.518 31.945 127.518 27.0273C127.518 22.1095 130.604 19.4368 134.512 19.4368C138.524 19.4368 141.506 22.2164 141.506 27.0273C141.506 31.8381 138.524 34.6177 134.512 34.6177ZM243.569 14.1983V40.7115H250.049V27.0273C250.049 22.3233 252.26 19.6506 256.426 19.6506C260.129 19.6506 262.186 21.8422 262.186 25.5306V40.7115H268.666V24.8891C268.666 17.9936 264.397 13.7707 258.74 13.7707C254.06 13.7707 251.694 16.0158 250.666 18.4746H249.946V14.1983H243.569ZM270.196 6.50097C270.196 9.22712 272.201 11.098 274.773 11.098C277.344 11.098 279.35 9.22712 279.35 6.50097C279.35 3.77482 277.344 1.90393 274.773 1.90393C272.201 1.90393 270.196 3.77482 270.196 6.50097ZM278.013 14.1983H271.533V40.7115H278.013V14.1983ZM279.673 27.4549C279.673 35.6868 285.536 41.4598 292.941 41.4598C300.09 41.4598 304.564 37.3439 305.799 31.3036L299.421 29.6465C298.753 33.121 296.953 35.473 293.044 35.473C288.879 35.473 286.153 32.2658 286.153 27.4549C286.153 22.644 289.136 19.4368 293.044 19.4368C296.953 19.4368 298.959 22.1095 299.421 25.3167L305.799 23.6062C304.461 17.5659 300.039 13.45 292.941 13.45C285.536 13.45 279.673 19.223 279.673 27.4549ZM305.679 27.4549C305.679 35.7937 311.541 41.4598 319.05 41.4598C326.559 41.4598 332.421 35.7937 332.421 27.4549C332.421 19.1161 326.559 13.45 319.05 13.45C311.541 13.45 305.679 19.1161 305.679 27.4549ZM312.159 27.4549C312.159 22.644 314.936 19.4368 319.05 19.4368C323.164 19.4368 325.941 22.644 325.941 27.4549C325.941 32.2658 323.164 35.473 319.05 35.473C314.936 35.473 312.159 32.2658 312.159 27.4549Z" fill="url(#paint0_linear)"/>
<path d="M148.832 14.1983L153.872 40.7115H163.129L167.141 19.9713H167.758L171.769 40.7115H181.027L186.067 14.1983H179.587L176.552 34.9384H175.935L171.924 14.1983H162.975L158.964 34.9384H158.347L155.312 14.1983H148.832ZM185.559 6.50097C185.559 9.22712 187.565 11.098 190.137 11.098C192.708 11.098 194.714 9.22712 194.714 6.50097C194.714 3.77482 192.708 1.90393 190.137 1.90393C187.565 1.90393 185.559 3.77482 185.559 6.50097ZM193.377 14.1983H186.897V40.7115H193.377V14.1983ZM193.906 14.1983V19.9713H200.386V35.5799C200.386 38.5733 202.546 40.7115 205.426 40.7115H212.42V34.9384H208.306C207.38 34.9384 206.866 34.4039 206.866 33.3348V19.9713H213.86V14.1983H206.866V5.96643H200.386V14.1983H193.906ZM215.604 3.29373V40.7115H222.084V27.0273C222.084 22.3233 224.296 19.6506 228.462 19.6506C232.164 19.6506 234.222 21.8422 234.222 25.5306V40.7115H240.702V24.8891C240.702 17.9936 236.433 13.7707 230.776 13.7707C226.096 13.7707 223.73 16.0158 222.702 18.4746H222.084V3.29373H215.604Z" fill="url(#paint1_linear)"/>
<path d="M148.832 14.1983L153.872 40.7115H163.129L167.141 19.9713H167.758L171.769 40.7115H181.027L186.067 14.1983H179.587L176.552 34.9384H175.935L171.924 14.1983H162.975L158.964 34.9384H158.347L155.312 14.1983H148.832ZM185.559 6.50097C185.559 9.22712 187.565 11.098 190.137 11.098C192.708 11.098 194.714 9.22712 194.714 6.50097C194.714 3.77482 192.708 1.90393 190.137 1.90393C187.565 1.90393 185.559 3.77482 185.559 6.50097ZM193.377 14.1983H186.897V40.7115H193.377V14.1983ZM193.906 14.1983V19.9713H200.386V35.5799C200.386 38.5733 202.546 40.7115 205.426 40.7115H212.42V34.9384H208.306C207.38 34.9384 206.866 34.4039 206.866 33.3348V19.9713H213.86V14.1983H206.866V5.96643H200.386V14.1983H193.906ZM215.604 3.29373V40.7115H222.084V27.0273C222.084 22.3233 224.296 19.6506 228.462 19.6506C232.164 19.6506 234.222 21.8422 234.222 25.5306V40.7115H240.702V24.8891C240.702 17.9936 236.433 13.7707 230.776 13.7707C226.096 13.7707 223.73 16.0158 222.702 18.4746H222.084V3.29373H215.604Z" fill="url(#paint2_linear)"/>
</g>
<g filter="url(#filter1_d)">
<path d="M44.4412 40.2308C51.6811 38.2145 55.9776 30.4797 54.0377 22.9547C52.0977 15.4297 44.656 10.964 37.4161 12.9804C30.1762 14.9967 25.8797 22.7315 27.8197 30.2565C29.7596 37.7815 37.2013 42.2472 44.4412 40.2308Z" fill="url(#paint3_linear)"/>
<path d="M44.7185 41.3066C52.53 39.1311 57.1656 30.7856 55.0726 22.6665C52.9795 14.5474 44.9503 9.72921 37.1388 11.9047C29.3273 14.0802 24.6916 22.4256 26.7847 30.5447C28.8778 38.6638 36.907 43.4821 44.7185 41.3066Z" stroke="#9B51E0" stroke-opacity="0.75" stroke-width="1.75537"/>
</g>
<g filter="url(#filter2_d)">
<path d="M31.5575 29.8917L38.7727 30.9034L38.298 29.0621L33.4678 28.5459L33.4466 28.4641L37.3814 25.5067L36.9068 23.6655L31.1449 28.2913L31.5575 29.8917Z" fill="#5F0DAB"/>
<path d="M41.6979 19.7534L40.0066 20.2244L39.839 32.2194L41.5302 31.7484L41.6979 19.7534Z" fill="#5F0DAB"/>
<path d="M50.6251 24.5814L50.2125 22.981L42.9973 21.9692L43.472 23.8106L48.3022 24.3268L48.3233 24.4086L44.3885 27.3659L44.8632 29.2072L50.6251 24.5814Z" fill="#5F0DAB"/>
</g>
<defs>
<filter id="filter0_d" x="0.153198" y="0.148559" width="334.024" height="53.7574" filterUnits="userSpaceOnUse" color-interpolation-filters="sRGB">
<feFlood flood-opacity="0" result="BackgroundImageFix"/>
<feColorMatrix in="SourceAlpha" type="matrix" values="0 0 0 0 0 0 0 0 0 0 0 0 0 0 0 0 0 0 127 0"/>
<feOffset/>
<feGaussianBlur stdDeviation="0.877686"/>
<feColorMatrix type="matrix" values="0 0 0 0 0.607843 0 0 0 0 0.317647 0 0 0 0 0.878431 0 0 0 0.26 0"/>
<feBlend mode="normal" in2="BackgroundImageFix" result="effect1_dropShadow"/>
<feBlend mode="normal" in="SourceGraphic" in2="effect1_dropShadow" result="shape"/>
</filter>
<filter id="filter1_d" x="23.6538" y="8.74414" width="34.5497" height="35.723" filterUnits="userSpaceOnUse" color-interpolation-filters="sRGB">
<feFlood flood-opacity="0" result="BackgroundImageFix"/>
<feColorMatrix in="SourceAlpha" type="matrix" values="0 0 0 0 0 0 0 0 0 0 0 0 0 0 0 0 0 0 127 0"/>
<feOffset/>
<feGaussianBlur stdDeviation="0.877686"/>
<feColorMatrix type="matrix" values="0 0 0 0 0.607843 0 0 0 0 0.317647 0 0 0 0 0.878431 0 0 0 0.26 0"/>
<feBlend mode="normal" in2="BackgroundImageFix" result="effect1_dropShadow"/>
<feBlend mode="normal" in="SourceGraphic" in2="effect1_dropShadow" result="shape"/>
</filter>
<filter id="filter2_d" x="28.8044" y="19.7534" width="24.1612" height="17.147" filterUnits="userSpaceOnUse" color-interpolation-filters="sRGB">
<feFlood flood-opacity="0" result="BackgroundImageFix"/>
<feColorMatrix in="SourceAlpha" type="matrix" values="0 0 0 0 0 0 0 0 0 0 0 0 0 0 0 0 0 0 127 0"/>
<feOffset dy="2.3405"/>
<feGaussianBlur stdDeviation="1.17025"/>
<feColorMatrix type="matrix" values="0 0 0 0 0.733333 0 0 0 0 0.419608 0 0 0 0 0.85098 0 0 0 1 0"/>
<feBlend mode="normal" in2="BackgroundImageFix" result="effect1_dropShadow"/>
<feBlend mode="normal" in="SourceGraphic" in2="effect1_dropShadow" result="shape"/>
</filter>
<linearGradient id="paint0_linear" x1="45.8419" y1="-7.43947" x2="56.2704" y2="75.8887" gradientUnits="userSpaceOnUse">
<stop stop-color="#F4D7FF"/>
<stop offset="1" stop-color="#BB6BD9"/>
</linearGradient>
<linearGradient id="paint1_linear" x1="45.842" y1="-7.43947" x2="56.2706" y2="75.8887" gradientUnits="userSpaceOnUse">
<stop stop-color="#F4D7FF"/>
<stop offset="1" stop-color="#BB6BD9"/>
</linearGradient>
<linearGradient id="paint2_linear" x1="167.357" y1="-12" x2="167.357" y2="51.8477" gradientUnits="userSpaceOnUse">
<stop stop-color="#9B51E0"/>
<stop offset="1" stop-color="#9B51E0"/>
</linearGradient>
<linearGradient id="paint3_linear" x1="28.3671" y1="17.5867" x2="51.5756" y2="37.5664" gradientUnits="userSpaceOnUse">
<stop stop-color="#F4D7FF"/>
<stop offset="1" stop-color="#BB6BD9"/>
</linearGradient>
</defs>
</svg>
