<svg width="340" height="70" viewBox="0 0 340 70" fill="none" xmlns="http://www.w3.org/2000/svg">
<g filter="url(#filter0_d)">
<path d="M4.90857 39.4549C4.90857 47.6868 10.7714 53.4598 18.1771 53.4598C25.3257 53.4598 29.8 49.3439 31.0343 43.3036L24.6571 41.6465C23.9886 45.121 22.1886 47.473 18.28 47.473C14.1143 47.473 11.3886 44.2658 11.3886 39.4549C11.3886 34.6441 14.3714 31.4368 18.28 31.4368C22.1886 31.4368 24.1943 34.1095 24.6571 37.3167L31.0343 35.6062C29.6971 29.5659 25.2743 25.45 18.1771 25.45C10.7714 25.45 4.90857 31.223 4.90857 39.4549ZM84.7221 15.2937H78.2421V29.9401H77.625C76.2879 27.695 74.025 25.45 69.4992 25.45C63.1221 25.45 57.7735 31.3299 57.7735 39.4549C57.7735 47.5799 63.1221 53.4598 69.4992 53.4598C74.025 53.4598 76.2879 51.2148 77.625 48.9697H78.345V52.7115H84.7221V15.2937ZM71.2478 31.4368C75.2593 31.4368 78.2421 34.4302 78.2421 39.4549C78.2421 44.4796 75.2593 47.473 71.2478 47.473C67.3392 47.473 64.2535 44.5865 64.2535 39.4549C64.2535 34.3233 67.3392 31.4368 71.2478 31.4368ZM86.5964 18.501C86.5964 21.2271 88.6021 23.098 91.1736 23.098C93.745 23.098 95.7507 21.2271 95.7507 18.501C95.7507 15.7748 93.745 13.9039 91.1736 13.9039C88.6021 13.9039 86.5964 15.7748 86.5964 18.501ZM94.4136 26.1983H87.9336V52.7115H94.4136V26.1983ZM97.6164 26.1983V52.7115H104.096V39.0273C104.096 34.3233 106.308 31.6506 110.474 31.6506C114.176 31.6506 116.234 33.8422 116.234 37.5306V52.7115H122.714V36.8891C122.714 29.9936 118.445 25.7707 112.788 25.7707C108.108 25.7707 105.742 28.0158 104.714 30.4746H103.994V26.1983H97.6164ZM144.609 26.1983V29.9401H143.889C142.552 27.695 140.289 25.45 135.764 25.45C129.386 25.45 124.038 31.1161 124.038 39.0273C124.038 46.9385 129.386 52.6046 135.764 52.6046C140.289 52.6046 142.552 50.3595 143.889 48.1144H144.506V51.5355C144.506 56.2394 141.472 58.3776 137.461 58.3776C133.604 58.3776 131.135 55.8653 129.798 53.1391L124.346 56.6671C126.918 60.8365 130.878 64.1506 137.872 64.1506C145.895 64.1506 150.986 59.0725 150.986 51.8028V26.1983H144.609ZM137.512 46.6177C133.604 46.6177 130.518 43.945 130.518 39.0273C130.518 34.1095 133.604 31.4368 137.512 31.4368C141.524 31.4368 144.506 34.2164 144.506 39.0273C144.506 43.8381 141.524 46.6177 137.512 46.6177ZM246.569 26.1983V52.7115H253.049V39.0273C253.049 34.3233 255.26 31.6506 259.426 31.6506C263.129 31.6506 265.186 33.8422 265.186 37.5306V52.7115H271.666V36.8891C271.666 29.9936 267.397 25.7707 261.74 25.7707C257.06 25.7707 254.694 28.0158 253.666 30.4746H252.946V26.1983H246.569ZM273.196 18.501C273.196 21.2271 275.201 23.098 277.773 23.098C280.344 23.098 282.35 21.2271 282.35 18.501C282.35 15.7748 280.344 13.9039 277.773 13.9039C275.201 13.9039 273.196 15.7748 273.196 18.501ZM281.013 26.1983H274.533V52.7115H281.013V26.1983ZM282.673 39.4549C282.673 47.6868 288.536 53.4598 295.941 53.4598C303.09 53.4598 307.564 49.3439 308.799 43.3036L302.421 41.6465C301.753 45.121 299.953 47.473 296.044 47.473C291.879 47.473 289.153 44.2658 289.153 39.4549C289.153 34.6441 292.136 31.4368 296.044 31.4368C299.953 31.4368 301.959 34.1095 302.421 37.3167L308.799 35.6062C307.461 29.5659 303.039 25.45 295.941 25.45C288.536 25.45 282.673 31.223 282.673 39.4549ZM308.679 39.4549C308.679 47.7937 314.541 53.4598 322.05 53.4598C329.559 53.4598 335.421 47.7937 335.421 39.4549C335.421 31.1161 329.559 25.45 322.05 25.45C314.541 25.45 308.679 31.1161 308.679 39.4549ZM315.159 39.4549C315.159 34.6441 317.936 31.4368 322.05 31.4368C326.164 31.4368 328.941 34.6441 328.941 39.4549C328.941 44.2658 326.164 47.473 322.05 47.473C317.936 47.473 315.159 44.2658 315.159 39.4549Z" fill="url(#paint0_linear)"/>
<path d="M151.832 26.1984L156.872 52.7115H166.129L170.141 31.9714H170.758L174.769 52.7115H184.027L189.067 26.1984H182.587L179.552 46.9385H178.935L174.924 26.1984H165.975L161.964 46.9385H161.347L158.312 26.1984H151.832ZM188.559 18.501C188.559 21.2271 190.565 23.098 193.137 23.098C195.708 23.098 197.714 21.2271 197.714 18.501C197.714 15.7748 195.708 13.904 193.137 13.904C190.565 13.904 188.559 15.7748 188.559 18.501ZM196.377 26.1984H189.897V52.7115H196.377V26.1984ZM196.906 26.1984V31.9714H203.386V47.5799C203.386 50.5733 205.546 52.7115 208.426 52.7115H215.42V46.9385H211.306C210.38 46.9385 209.866 46.4039 209.866 45.3349V31.9714H216.86V26.1984H209.866V17.9665H203.386V26.1984H196.906ZM218.604 15.2938V52.7115H225.084V39.0273C225.084 34.3234 227.296 31.6507 231.462 31.6507C235.164 31.6507 237.222 33.8423 237.222 37.5306V52.7115H243.702V36.8891C243.702 29.9936 239.433 25.7707 233.776 25.7707C229.096 25.7707 226.73 28.0158 225.702 30.4747H225.084V15.2938H218.604Z" fill="url(#paint1_linear)"/>
<path d="M151.832 26.1984L156.872 52.7115H166.129L170.141 31.9714H170.758L174.769 52.7115H184.027L189.067 26.1984H182.587L179.552 46.9385H178.935L174.924 26.1984H165.975L161.964 46.9385H161.347L158.312 26.1984H151.832ZM188.559 18.501C188.559 21.2271 190.565 23.098 193.137 23.098C195.708 23.098 197.714 21.2271 197.714 18.501C197.714 15.7748 195.708 13.904 193.137 13.904C190.565 13.904 188.559 15.7748 188.559 18.501ZM196.377 26.1984H189.897V52.7115H196.377V26.1984ZM196.906 26.1984V31.9714H203.386V47.5799C203.386 50.5733 205.546 52.7115 208.426 52.7115H215.42V46.9385H211.306C210.38 46.9385 209.866 46.4039 209.866 45.3349V31.9714H216.86V26.1984H209.866V17.9665H203.386V26.1984H196.906ZM218.604 15.2938V52.7115H225.084V39.0273C225.084 34.3234 227.296 31.6507 231.462 31.6507C235.164 31.6507 237.222 33.8423 237.222 37.5306V52.7115H243.702V36.8891C243.702 29.9936 239.433 25.7707 233.776 25.7707C229.096 25.7707 226.73 28.0158 225.702 30.4747H225.084V15.2938H218.604Z" fill="url(#paint2_linear)"/>
</g>
<defs>
<filter id="filter0_d" x="3.1532" y="12.1486" width="334.024" height="53.7574" filterUnits="userSpaceOnUse" color-interpolation-filters="sRGB">
<feFlood flood-opacity="0" result="BackgroundImageFix"/>
<feColorMatrix in="SourceAlpha" type="matrix" values="0 0 0 0 0 0 0 0 0 0 0 0 0 0 0 0 0 0 127 0"/>
<feOffset/>
<feGaussianBlur stdDeviation="0.877686"/>
<feColorMatrix type="matrix" values="0 0 0 0 0.607843 0 0 0 0 0.317647 0 0 0 0 0.878431 0 0 0 0.26 0"/>
<feBlend mode="normal" in2="BackgroundImageFix" result="effect1_dropShadow"/>
<feBlend mode="normal" in="SourceGraphic" in2="effect1_dropShadow" result="shape"/>
</filter>
<linearGradient id="paint0_linear" x1="48.8419" y1="4.56053" x2="59.2704" y2="87.8887" gradientUnits="userSpaceOnUse">
<stop stop-color="#F4D7FF"/>
<stop offset="1" stop-color="#BB6BD9"/>
</linearGradient>
<linearGradient id="paint1_linear" x1="48.842" y1="4.56056" x2="59.2706" y2="87.8888" gradientUnits="userSpaceOnUse">
<stop stop-color="#F4D7FF"/>
<stop offset="1" stop-color="#BB6BD9"/>
</linearGradient>
<linearGradient id="paint2_linear" x1="170.357" y1="5.50155e-06" x2="170.357" y2="63.8477" gradientUnits="userSpaceOnUse">
<stop stop-color="#9B51E0"/>
<stop offset="1" stop-color="#9B51E0"/>
</linearGradient>
</defs>
</svg>
